Coordinates
version=1
nRows=80
nColumns=8
inDegrees=yes

# SIMM Motion File Header:
name Coordinates
datacolumns 8
datarows 80
otherdata 1
range 1.13700000 1.21600000

Units are S.I. units (second, meters, Newtons, ...)
Angles are in degrees.

endheader
time	pelvis_tilt	pelvis_tx	pelvis_ty	hip_flexion_r	knee_angle_r	knee_angle_pat_r	ankle_angle_r
      1.13700000	     -1.40351734	      0.00694127	      1.07371064	     -5.06286724	    -11.12207128	    -11.12206704	     16.66002139
      1.13800000	     -1.42413660	      0.00681587	      1.07354119	     -5.12129126	    -11.10410642	    -11.10410218	     16.70036749
      1.13900000	     -1.44437094	      0.00669102	      1.07337164	     -5.18005521	    -11.08657701	    -11.08657277	     16.73818042
      1.14000000	     -1.46434506	      0.00656640	      1.07320215	     -5.23905570	    -11.06928334	    -11.06927910	     16.77530291
      1.14100000	     -1.48362801	      0.00644241	      1.07303281	     -5.29865388	    -11.05272167	    -11.05271743	     16.81131576
      1.14200000	     -1.50270477	      0.00631884	      1.07286325	     -5.35831156	    -11.03684382	    -11.03683958	     16.84733869
      1.14300000	     -1.52169745	      0.00619558	      1.07269343	     -5.41792691	    -11.02151500	    -11.02151076	     16.88336423
      1.14400000	     -1.54063115	      0.00607271	      1.07252324	     -5.47743098	    -11.00690563	    -11.00690139	     16.91934325
      1.14500000	     -1.55927040	      0.00595041	      1.07235273	     -5.53704699	    -10.99325940	    -10.99325516	     16.95483329
      1.14600000	     -1.57787205	      0.00582817	      1.07218219	     -5.59667729	    -10.97973618	    -10.97973195	     16.99026087
      1.14700000	     -1.59544274	      0.00570662	      1.07201199	     -5.65729502	    -10.96716869	    -10.96716445	     17.02503327
      1.14800000	     -1.61287031	      0.00558513	      1.07184188	     -5.71806650	    -10.95466566	    -10.95466142	     17.05978448
      1.14900000	     -1.62843058	      0.00546430	      1.07167308	     -5.78090105	    -10.94277071	    -10.94276648	     17.09449741
      1.15000000	     -1.64378996	      0.00534351	      1.07150443	     -5.84396599	    -10.93090777	    -10.93090353	     17.12928629
      1.15100000	     -1.65683149	      0.00522324	      1.07133775	     -5.90971479	    -10.91927129	    -10.91926705	     17.16517687
      1.15200000	     -1.66723285	      0.00510335	      1.07117362	     -5.97856891	    -10.90751807	    -10.90751383	     17.20247623
      1.15300000	     -1.67319400	      0.00498395	      1.07101402	     -6.05264812	    -10.89538255	    -10.89537831	     17.24174565
      1.15400000	     -1.67611490	      0.00486485	      1.07085760	     -6.13029552	    -10.88294133	    -10.88293709	     17.28200657
      1.15500000	     -1.67586988	      0.00474608	      1.07070450	     -6.21165860	    -10.87018173	    -10.87017749	     17.32329963
      1.15600000	     -1.66813782	      0.00462808	      1.07055937	     -6.30175310	    -10.85670170	    -10.85669746	     17.36620991
      1.15700000	     -1.66025236	      0.00451010	      1.07041440	     -6.39202650	    -10.84320690	    -10.84320267	     17.40915333
      1.15800000	     -1.64567680	      0.00439288	      1.07027661	     -6.49001738	    -10.82922833	    -10.82922410	     17.45287529
      1.15900000	     -1.62849403	      0.00427603	      1.07014163	     -6.59096841	    -10.81517361	    -10.81516938	     17.49677075
      1.16000000	     -1.60847911	      0.00415958	      1.07000969	     -6.69512436	    -10.80106145	    -10.80105721	     17.54082547
      1.16100000	     -1.58482087	      0.00404383	      1.06988164	     -6.80326703	    -10.78722969	    -10.78722546	     17.58548433
      1.16200000	     -1.55975622	      0.00392850	      1.06975505	     -6.91283909	    -10.77378996	    -10.77378572	     17.63058043
      1.16300000	     -1.53364417	      0.00381353	      1.06962953	     -7.02343762	    -10.76073995	    -10.76073571	     17.67603546
      1.16400000	     -1.50728592	      0.00369929	      1.06950407	     -7.13387363	    -10.74881205	    -10.74880781	     17.72151002
      1.16500000	     -1.48211574	      0.00358551	      1.06937716	     -7.24260295	    -10.73782753	    -10.73782330	     17.76666085
      1.16600000	     -1.45787109	      0.00347209	      1.06924910	     -7.35000271	    -10.72757793	    -10.72757369	     17.81155949
      1.16700000	     -1.43780911	      0.00335946	      1.06911613	     -7.45195031	    -10.71923062	    -10.71922638	     17.85598406
      1.16800000	     -1.41936185	      0.00324710	      1.06898128	     -7.55182473	    -10.71153483	    -10.71153060	     17.90031510
      1.16900000	     -1.40760749	      0.00313564	      1.06883869	     -7.64324751	    -10.70616872	    -10.70616449	     17.94465904
      1.17000000	     -1.39785648	      0.00302442	      1.06869378	     -7.73217296	    -10.70140859	    -10.70140435	     17.98919213
      1.17100000	     -1.39598978	      0.00291411	      1.06853982	     -7.81133593	    -10.69886901	    -10.69886477	     18.03471408
      1.17200000	     -1.40070478	      0.00280446	      1.06837834	     -7.88246132	    -10.69794489	    -10.69794065	     18.08071890
      1.17300000	     -1.41258185	      0.00269549	      1.06820873	     -7.94489541	    -10.69866284	    -10.69865860	     18.12643764
      1.17400000	     -1.43280930	      0.00258731	      1.06802969	     -7.99724339	    -10.70118578	    -10.70118154	     18.17095507
      1.17500000	     -1.45957251	      0.00247975	      1.06784330	     -8.04171800	    -10.70507064	    -10.70506640	     18.21418013
      1.17600000	     -1.49744019	      0.00237335	      1.06764446	     -8.07286443	    -10.71115542	    -10.71115119	     18.25552364
      1.17700000	     -1.53692716	      0.00226713	      1.06744381	     -8.10206983	    -10.71755610	    -10.71755187	     18.29673814
      1.17800000	     -1.58610060	      0.00216212	      1.06723235	     -8.11968193	    -10.72581157	    -10.72580733	     18.33821649
      1.17900000	     -1.63874145	      0.00205770	      1.06701704	     -8.13315286	    -10.73471925	    -10.73471502	     18.38124314
      1.18000000	     -1.69472594	      0.00195384	      1.06679803	     -8.14263043	    -10.74425588	    -10.74425165	     18.42576282
      1.18100000	     -1.75442905	      0.00185104	      1.06657498	     -8.14767730	    -10.75445691	    -10.75445267	     18.47503008
      1.18200000	     -1.81491194	      0.00174869	      1.06635111	     -8.15179904	    -10.76476485	    -10.76476061	     18.52642510
      1.18300000	     -1.87474772	      0.00164734	      1.06612817	     -8.15672193	    -10.77470349	    -10.77469926	     18.58110720
      1.18400000	     -1.93258674	      0.00154662	      1.06590767	     -8.16405866	    -10.78398597	    -10.78398173	     18.63576864
      1.18500000	     -1.98796486	      0.00144653	      1.06569013	     -8.17436474	    -10.79249164	    -10.79248740	     18.68971408
      1.18600000	     -2.03910789	      0.00134727	      1.06547766	     -8.18977061	    -10.79972008	    -10.79971584	     18.74113525
      1.18700000	     -2.08446660	      0.00124889	      1.06527205	     -8.21211165	    -10.80532542	    -10.80532118	     18.78832898
      1.18800000	     -2.12485234	      0.00115121	      1.06507233	     -8.24038738	    -10.80963472	    -10.80963049	     18.83217042
      1.18900000	     -2.16036096	      0.00105419	      1.06487836	     -8.27447462	    -10.81270447	    -10.81270023	     18.87281356
      1.19000000	     -2.18962987	      0.00095797	      1.06469173	     -8.31594803	    -10.81436018	    -10.81435594	     18.91056741
      1.19100000	     -2.21092788	      0.00086275	      1.06451443	     -8.36679238	    -10.81443008	    -10.81442585	     18.94657980
      1.19200000	     -2.22755397	      0.00076811	      1.06434260	     -8.42308732	    -10.81370364	    -10.81369940	     18.98255002
      1.19300000	     -2.23770416	      0.00067429	      1.06417835	     -8.48688721	    -10.81202153	    -10.81201730	     19.01916585
      1.19400000	     -2.24112281	      0.00058136	      1.06402203	     -8.55837648	    -10.80964907	    -10.80964483	     19.05677971
      1.19500000	     -2.23790417	      0.00048940	      1.06387364	     -8.63727433	    -10.80703417	    -10.80702994	     19.09453126
      1.19600000	     -2.23174828	      0.00039787	      1.06372876	     -8.71944313	    -10.80433127	    -10.80432703	     19.13230653
      1.19700000	     -2.22181777	      0.00030703	      1.06358852	     -8.80562962	    -10.80197279	    -10.80196856	     19.16866008
      1.19800000	     -2.20707445	      0.00021706	      1.06345420	     -8.89693884	    -10.80005347	    -10.80004923	     19.20320089
      1.19900000	     -2.18952639	      0.00012775	      1.06332350	     -8.99098910	    -10.79899661	    -10.79899237	     19.23497986
      1.20000000	     -2.16951087	      0.00003904	      1.06319597	     -9.08745077	    -10.79869850	    -10.79869426	     19.26432914
      1.20100000	     -2.14659869	     -0.00004873	      1.06307241	     -9.18636966	    -10.80024856	    -10.80024432	     19.28960583
      1.20200000	     -2.12215244	     -0.00013569	      1.06295120	     -9.28615062	    -10.80392801	    -10.80392377	     19.31230289
      1.20300000	     -2.09736469	     -0.00022204	      1.06283083	     -9.38555854	    -10.80957598	    -10.80957175	     19.33467743
      1.20400000	     -2.07225588	     -0.00030783	      1.06271125	     -9.48461575	    -10.81707469	    -10.81707045	     19.35674876
      1.20500000	     -2.04785771	     -0.00039271	      1.06259149	     -9.58164750	    -10.82790577	    -10.82790154	     19.38193888
      1.20600000	     -2.02390828	     -0.00047702	      1.06247163	     -9.67740023	    -10.84084114	    -10.84083691	     19.40909842
      1.20700000	     -2.00047996	     -0.00056103	      1.06235138	     -9.77214768	    -10.85494350	    -10.85493926	     19.43805743
      1.20800000	     -1.97873460	     -0.00064403	      1.06222989	     -9.86364848	    -10.87281473	    -10.87281050	     19.47282797
      1.20900000	     -1.95891171	     -0.00072614	      1.06210681	     -9.95186991	    -10.89381828	    -10.89381405	     19.51246375
      1.21000000	     -1.94026090	     -0.00080773	      1.06198275	    -10.03817023	    -10.91651093	    -10.91650670	     19.55446275
      1.21100000	     -1.92433441	     -0.00088813	      1.06185641	    -10.12013686	    -10.94274023	    -10.94273599	     19.60035990
      1.21200000	     -1.90922432	     -0.00096816	      1.06172939	    -10.20081774	    -10.96998606	    -10.96998183	     19.64711171
      1.21300000	     -1.89692034	     -0.00104679	      1.06160019	    -10.27708053	    -11.00066364	    -11.00065940	     19.69452676
      1.21400000	     -1.88530842	     -0.00112504	      1.06147048	    -10.35225271	    -11.03217635	    -11.03217212	     19.74152921
      1.21500000	     -1.87569795	     -0.00120218	      1.06133930	    -10.42427067	    -11.06610106	    -11.06609682	     19.78717603
      1.21600000	     -1.86788090	     -0.00127827	      1.06120686	    -10.49345649	    -11.10219035	    -11.10218612	     19.83126358
